<mxfile host="Electron" agent="Mozilla/5.0 (Windows NT 10.0; Win64; x64) AppleWebKit/537.36 (KHTML, like Gecko) draw.io/26.0.16 Chrome/132.0.6834.196 Electron/34.2.0 Safari/537.36" version="26.0.16">
  <diagram name="Page-1" id="dajdHq9MhlpOEaMz0Bhz">
    <mxGraphModel dx="1434" dy="836" grid="1" gridSize="10" guides="1" tooltips="1" connect="1" arrows="1" fold="1" page="1" pageScale="1" pageWidth="850" pageHeight="1100" math="0" shadow="0">
      <root>
        <mxCell id="0" />
        <mxCell id="1" parent="0" />
        <mxCell id="7hFAT_4vR7-1dg3_co3H-1" value="&lt;font style=&quot;&quot;&gt;&lt;b style=&quot;&quot;&gt;&lt;span style=&quot;font-size: 36px;&quot;&gt;Integration Model&amp;nbsp;&lt;/span&gt;&lt;font style=&quot;font-size: 18px;&quot;&gt;(Table Relations)&lt;/font&gt;&lt;/b&gt;&lt;/font&gt;" style="text;html=1;align=center;verticalAlign=middle;resizable=0;points=[];autosize=1;strokeColor=none;fillColor=none;" parent="1" vertex="1">
          <mxGeometry x="20" y="50" width="480" height="60" as="geometry" />
        </mxCell>
        <mxCell id="7hFAT_4vR7-1dg3_co3H-4" value="" style="rounded=0;whiteSpace=wrap;html=1;dashed=1;fillColor=none;strokeColor=#8C7764;" parent="1" vertex="1">
          <mxGeometry x="20" y="250" width="500" height="370" as="geometry" />
        </mxCell>
        <mxCell id="7hFAT_4vR7-1dg3_co3H-5" value="&lt;font style=&quot;font-size: 25px;&quot;&gt;CRM&lt;/font&gt;" style="rounded=1;whiteSpace=wrap;html=1;fillColor=#dae8fc;strokeColor=#6c8ebf;" parent="1" vertex="1">
          <mxGeometry x="168" y="230" width="197.5" height="40" as="geometry" />
        </mxCell>
        <mxCell id="8Ro6if_UnG99gxaWc1OO-21" style="edgeStyle=orthogonalEdgeStyle;rounded=0;orthogonalLoop=1;jettySize=auto;html=1;entryX=0;entryY=0.5;entryDx=0;entryDy=0;fillColor=#f5f5f5;strokeColor=#666666;" parent="1" edge="1">
          <mxGeometry relative="1" as="geometry">
            <mxPoint x="410" y="315" as="sourcePoint" />
          </mxGeometry>
        </mxCell>
        <mxCell id="wP7zorXVzm_6tvVMqqTB-5" value="crm_cust_info" style="swimlane;fontStyle=0;childLayout=stackLayout;horizontal=1;startSize=30;horizontalStack=0;resizeParent=1;resizeParentMax=0;resizeLast=0;collapsible=1;marginBottom=0;whiteSpace=wrap;html=1;fillColor=#dae8fc;strokeColor=#6c8ebf;rounded=1;" parent="1" vertex="1">
          <mxGeometry x="335.94" y="510" width="150" height="90" as="geometry" />
        </mxCell>
        <mxCell id="wP7zorXVzm_6tvVMqqTB-6" value="cst_id" style="text;strokeColor=none;fillColor=none;align=left;verticalAlign=middle;spacingLeft=4;spacingRight=4;overflow=hidden;points=[[0,0.5],[1,0.5]];portConstraint=eastwest;rotatable=0;whiteSpace=wrap;html=1;" parent="wP7zorXVzm_6tvVMqqTB-5" vertex="1">
          <mxGeometry y="30" width="150" height="30" as="geometry" />
        </mxCell>
        <mxCell id="wP7zorXVzm_6tvVMqqTB-7" value="cst_key" style="text;strokeColor=none;fillColor=none;align=left;verticalAlign=middle;spacingLeft=4;spacingRight=4;overflow=hidden;points=[[0,0.5],[1,0.5]];portConstraint=eastwest;rotatable=0;whiteSpace=wrap;html=1;" parent="wP7zorXVzm_6tvVMqqTB-5" vertex="1">
          <mxGeometry y="60" width="150" height="30" as="geometry" />
        </mxCell>
        <mxCell id="wP7zorXVzm_6tvVMqqTB-9" value="Customer Information" style="text;html=1;align=center;verticalAlign=middle;whiteSpace=wrap;rounded=0;" parent="1" vertex="1">
          <mxGeometry x="340" y="474" width="140" height="30" as="geometry" />
        </mxCell>
        <mxCell id="wP7zorXVzm_6tvVMqqTB-10" value="crm_sales_details" style="swimlane;fontStyle=0;childLayout=stackLayout;horizontal=1;startSize=30;horizontalStack=0;resizeParent=1;resizeParentMax=0;resizeLast=0;collapsible=1;marginBottom=0;whiteSpace=wrap;html=1;fillColor=#dae8fc;strokeColor=#6c8ebf;rounded=1;" parent="1" vertex="1">
          <mxGeometry x="60" y="410" width="150" height="120" as="geometry" />
        </mxCell>
        <mxCell id="wP7zorXVzm_6tvVMqqTB-11" value="sls_ord_num" style="text;strokeColor=none;fillColor=none;align=left;verticalAlign=middle;spacingLeft=4;spacingRight=4;overflow=hidden;points=[[0,0.5],[1,0.5]];portConstraint=eastwest;rotatable=0;whiteSpace=wrap;html=1;" parent="wP7zorXVzm_6tvVMqqTB-10" vertex="1">
          <mxGeometry y="30" width="150" height="30" as="geometry" />
        </mxCell>
        <mxCell id="wP7zorXVzm_6tvVMqqTB-12" value="sls_prd_key" style="text;strokeColor=none;fillColor=none;align=left;verticalAlign=middle;spacingLeft=4;spacingRight=4;overflow=hidden;points=[[0,0.5],[1,0.5]];portConstraint=eastwest;rotatable=0;whiteSpace=wrap;html=1;" parent="wP7zorXVzm_6tvVMqqTB-10" vertex="1">
          <mxGeometry y="60" width="150" height="30" as="geometry" />
        </mxCell>
        <mxCell id="wP7zorXVzm_6tvVMqqTB-13" value="sls_cust_id" style="text;strokeColor=none;fillColor=none;align=left;verticalAlign=middle;spacingLeft=4;spacingRight=4;overflow=hidden;points=[[0,0.5],[1,0.5]];portConstraint=eastwest;rotatable=0;whiteSpace=wrap;html=1;" parent="wP7zorXVzm_6tvVMqqTB-10" vertex="1">
          <mxGeometry y="90" width="150" height="30" as="geometry" />
        </mxCell>
        <mxCell id="wP7zorXVzm_6tvVMqqTB-14" value="Transactional Records of Sales and Order" style="text;html=1;align=center;verticalAlign=middle;whiteSpace=wrap;rounded=0;" parent="1" vertex="1">
          <mxGeometry x="65" y="370" width="140" height="30" as="geometry" />
        </mxCell>
        <mxCell id="wP7zorXVzm_6tvVMqqTB-16" value="crm_prd_info" style="swimlane;fontStyle=0;childLayout=stackLayout;horizontal=1;startSize=30;horizontalStack=0;resizeParent=1;resizeParentMax=0;resizeLast=0;collapsible=1;marginBottom=0;whiteSpace=wrap;html=1;fillColor=#dae8fc;strokeColor=#6c8ebf;rounded=1;swimlaneLine=1;glass=0;" parent="1" vertex="1">
          <mxGeometry x="340.94" y="330" width="150" height="90" as="geometry" />
        </mxCell>
        <mxCell id="wP7zorXVzm_6tvVMqqTB-17" value="prd_id" style="text;strokeColor=none;fillColor=none;align=left;verticalAlign=middle;spacingLeft=4;spacingRight=4;overflow=hidden;points=[[0,0.5],[1,0.5]];portConstraint=eastwest;rotatable=0;whiteSpace=wrap;html=1;" parent="wP7zorXVzm_6tvVMqqTB-16" vertex="1">
          <mxGeometry y="30" width="150" height="30" as="geometry" />
        </mxCell>
        <mxCell id="wP7zorXVzm_6tvVMqqTB-18" value="prd_key" style="text;strokeColor=none;fillColor=none;align=left;verticalAlign=middle;spacingLeft=4;spacingRight=4;overflow=hidden;points=[[0,0.5],[1,0.5]];portConstraint=eastwest;rotatable=0;whiteSpace=wrap;html=1;" parent="wP7zorXVzm_6tvVMqqTB-16" vertex="1">
          <mxGeometry y="60" width="150" height="30" as="geometry" />
        </mxCell>
        <mxCell id="wP7zorXVzm_6tvVMqqTB-19" value="Current and Historic Product Information" style="text;html=1;align=center;verticalAlign=middle;whiteSpace=wrap;rounded=0;" parent="1" vertex="1">
          <mxGeometry x="345.94" y="290" width="140" height="30" as="geometry" />
        </mxCell>
        <mxCell id="wP7zorXVzm_6tvVMqqTB-22" value="" style="endArrow=none;html=1;rounded=0;entryX=0;entryY=0.5;entryDx=0;entryDy=0;fillColor=#f5f5f5;strokeColor=#666666;" parent="1" target="wP7zorXVzm_6tvVMqqTB-6" edge="1">
          <mxGeometry width="50" height="50" relative="1" as="geometry">
            <mxPoint x="210" y="520" as="sourcePoint" />
            <mxPoint x="260" y="470" as="targetPoint" />
            <Array as="points">
              <mxPoint x="270" y="520" />
              <mxPoint x="270" y="555" />
            </Array>
          </mxGeometry>
        </mxCell>
        <mxCell id="wP7zorXVzm_6tvVMqqTB-23" value="" style="endArrow=none;html=1;rounded=0;entryX=0;entryY=0.5;entryDx=0;entryDy=0;fillColor=#f5f5f5;strokeColor=#666666;" parent="1" target="wP7zorXVzm_6tvVMqqTB-18" edge="1">
          <mxGeometry width="50" height="50" relative="1" as="geometry">
            <mxPoint x="210" y="480" as="sourcePoint" />
            <mxPoint x="260" y="430" as="targetPoint" />
            <Array as="points">
              <mxPoint x="270" y="480" />
              <mxPoint x="270" y="405" />
            </Array>
          </mxGeometry>
        </mxCell>
        <mxCell id="wP7zorXVzm_6tvVMqqTB-24" value="Customer Relationship Management" style="text;html=1;align=center;verticalAlign=middle;whiteSpace=wrap;rounded=0;" parent="1" vertex="1">
          <mxGeometry x="200" y="190" width="140" height="30" as="geometry" />
        </mxCell>
        <mxCell id="wP7zorXVzm_6tvVMqqTB-25" value="" style="rounded=0;whiteSpace=wrap;html=1;dashed=1;fillColor=none;strokeColor=#8C7764;" parent="1" vertex="1">
          <mxGeometry x="600" y="249" width="310" height="420" as="geometry" />
        </mxCell>
        <mxCell id="wP7zorXVzm_6tvVMqqTB-26" value="&lt;font style=&quot;font-size: 25px;&quot;&gt;ERP&lt;/font&gt;" style="rounded=1;whiteSpace=wrap;html=1;fillColor=#fff2cc;strokeColor=#d6b656;" parent="1" vertex="1">
          <mxGeometry x="656.25" y="230" width="197.5" height="40" as="geometry" />
        </mxCell>
        <mxCell id="wP7zorXVzm_6tvVMqqTB-27" value="Enterprise Reource Planning" style="text;html=1;align=center;verticalAlign=middle;whiteSpace=wrap;rounded=0;" parent="1" vertex="1">
          <mxGeometry x="685" y="190" width="140" height="30" as="geometry" />
        </mxCell>
        <mxCell id="wP7zorXVzm_6tvVMqqTB-28" value="erp_cust_az12" style="swimlane;fontStyle=0;childLayout=stackLayout;horizontal=1;startSize=30;horizontalStack=0;resizeParent=1;resizeParentMax=0;resizeLast=0;collapsible=1;marginBottom=0;whiteSpace=wrap;html=1;fillColor=#fff2cc;strokeColor=#d6b656;rounded=1;" parent="1" vertex="1">
          <mxGeometry x="680" y="590" width="150" height="60" as="geometry" />
        </mxCell>
        <mxCell id="wP7zorXVzm_6tvVMqqTB-29" value="cid" style="text;strokeColor=none;fillColor=none;align=left;verticalAlign=middle;spacingLeft=4;spacingRight=4;overflow=hidden;points=[[0,0.5],[1,0.5]];portConstraint=eastwest;rotatable=0;whiteSpace=wrap;html=1;" parent="wP7zorXVzm_6tvVMqqTB-28" vertex="1">
          <mxGeometry y="30" width="150" height="30" as="geometry" />
        </mxCell>
        <mxCell id="wP7zorXVzm_6tvVMqqTB-31" value="erp_loc_a101" style="swimlane;fontStyle=0;childLayout=stackLayout;horizontal=1;startSize=30;horizontalStack=0;resizeParent=1;resizeParentMax=0;resizeLast=0;collapsible=1;marginBottom=0;whiteSpace=wrap;html=1;fillColor=#fff2cc;strokeColor=#d6b656;rounded=1;" parent="1" vertex="1">
          <mxGeometry x="680" y="474" width="150" height="60" as="geometry" />
        </mxCell>
        <mxCell id="wP7zorXVzm_6tvVMqqTB-32" value="cid" style="text;strokeColor=none;fillColor=none;align=left;verticalAlign=middle;spacingLeft=4;spacingRight=4;overflow=hidden;points=[[0,0.5],[1,0.5]];portConstraint=eastwest;rotatable=0;whiteSpace=wrap;html=1;" parent="wP7zorXVzm_6tvVMqqTB-31" vertex="1">
          <mxGeometry y="30" width="150" height="30" as="geometry" />
        </mxCell>
        <mxCell id="wP7zorXVzm_6tvVMqqTB-33" value="Country of Customer" style="text;html=1;align=center;verticalAlign=middle;whiteSpace=wrap;rounded=0;" parent="1" vertex="1">
          <mxGeometry x="685" y="444" width="140" height="30" as="geometry" />
        </mxCell>
        <mxCell id="wP7zorXVzm_6tvVMqqTB-34" value="DOB of Customer" style="text;html=1;align=center;verticalAlign=middle;whiteSpace=wrap;rounded=0;" parent="1" vertex="1">
          <mxGeometry x="685" y="560" width="140" height="30" as="geometry" />
        </mxCell>
        <mxCell id="wP7zorXVzm_6tvVMqqTB-35" value="" style="endArrow=none;html=1;rounded=0;entryX=0;entryY=0.5;entryDx=0;entryDy=0;fillColor=#f5f5f5;strokeColor=#666666;" parent="1" target="wP7zorXVzm_6tvVMqqTB-29" edge="1">
          <mxGeometry width="50" height="50" relative="1" as="geometry">
            <mxPoint x="485.94000000000005" y="589" as="sourcePoint" />
            <mxPoint x="545.94" y="589" as="targetPoint" />
            <Array as="points">
              <mxPoint x="560" y="590" />
              <mxPoint x="560" y="635" />
            </Array>
          </mxGeometry>
        </mxCell>
        <mxCell id="wP7zorXVzm_6tvVMqqTB-37" value="erp_px_cat_g1v2" style="swimlane;fontStyle=0;childLayout=stackLayout;horizontal=1;startSize=30;horizontalStack=0;resizeParent=1;resizeParentMax=0;resizeLast=0;collapsible=1;marginBottom=0;whiteSpace=wrap;html=1;fillColor=#fff2cc;strokeColor=#d6b656;rounded=1;" parent="1" vertex="1">
          <mxGeometry x="685" y="330" width="150" height="60" as="geometry" />
        </mxCell>
        <mxCell id="wP7zorXVzm_6tvVMqqTB-38" value="id" style="text;strokeColor=none;fillColor=none;align=left;verticalAlign=middle;spacingLeft=4;spacingRight=4;overflow=hidden;points=[[0,0.5],[1,0.5]];portConstraint=eastwest;rotatable=0;whiteSpace=wrap;html=1;" parent="wP7zorXVzm_6tvVMqqTB-37" vertex="1">
          <mxGeometry y="30" width="150" height="30" as="geometry" />
        </mxCell>
        <mxCell id="wP7zorXVzm_6tvVMqqTB-39" value="Product Categories" style="text;html=1;align=center;verticalAlign=middle;whiteSpace=wrap;rounded=0;" parent="1" vertex="1">
          <mxGeometry x="690" y="300" width="140" height="30" as="geometry" />
        </mxCell>
        <mxCell id="wP7zorXVzm_6tvVMqqTB-40" value="" style="endArrow=none;html=1;rounded=0;entryX=0;entryY=0.5;entryDx=0;entryDy=0;fillColor=#f5f5f5;strokeColor=#666666;" parent="1" target="wP7zorXVzm_6tvVMqqTB-38" edge="1">
          <mxGeometry width="50" height="50" relative="1" as="geometry">
            <mxPoint x="490" y="410" as="sourcePoint" />
            <mxPoint x="590" y="410" as="targetPoint" />
            <Array as="points">
              <mxPoint x="560" y="410" />
              <mxPoint x="560" y="375" />
            </Array>
          </mxGeometry>
        </mxCell>
        <mxCell id="wP7zorXVzm_6tvVMqqTB-42" value="" style="endArrow=none;html=1;rounded=0;entryX=0;entryY=0.5;entryDx=0;entryDy=0;fillColor=#f5f5f5;strokeColor=#666666;" parent="1" target="wP7zorXVzm_6tvVMqqTB-32" edge="1">
          <mxGeometry width="50" height="50" relative="1" as="geometry">
            <mxPoint x="560" y="590" as="sourcePoint" />
            <mxPoint x="580" y="490" as="targetPoint" />
            <Array as="points">
              <mxPoint x="560" y="520" />
            </Array>
          </mxGeometry>
        </mxCell>
      </root>
    </mxGraphModel>
  </diagram>
</mxfile>
